<?xml version="1.0" standalone="no"?>
<!DOCTYPE svg PUBLIC "-//W3C//DTD SVG 20010904//EN"
 "http://www.w3.org/TR/2001/REC-SVG-20010904/DTD/svg10.dtd">
<svg version="1.0" xmlns="http://www.w3.org/2000/svg"
 width="512.000000pt" height="512.000000pt" viewBox="0 0 512.000000 512.000000"
 preserveAspectRatio="xMidYMid meet">

<g transform="translate(0.000000,512.000000) scale(0.100000,-0.100000)"
fill="#000000" stroke="none">
<path d="M2365 5105 c-475 -77 -871 -415 -1021 -871 -81 -247 -84 -503 -9
-759 15 -49 166 -601 337 -1225 215 -788 311 -1156 315 -1205 4 -54 1 -81 -14
-121 -11 -28 -116 -205 -235 -395 -266 -426 -253 -402 -239 -451 8 -26 23 -46
44 -58 31 -19 58 -20 1015 -20 1093 0 1029 -4 1059 67 8 20 12 46 9 59 -3 12
-106 181 -228 376 -122 194 -232 378 -244 408 -15 35 -24 75 -24 111 0 44 75
330 326 1250 179 657 334 1223 344 1259 166 608 -201 1295 -810 1515 -184 66
-436 90 -625 60z m411 -219 c356 -75 648 -332 782 -690 19 -50 35 -100 36
-111 0 -11 -57 -111 -127 -221 l-128 -202 -48 47 c-178 179 -446 173 -618 -13
l-55 -59 -23 29 c-13 16 -108 130 -212 254 -166 198 -193 226 -226 234 -73 18
-136 -41 -124 -116 2 -18 25 -80 49 -138 41 -95 128 -342 128 -360 0 -10 -24
-5 -110 22 -141 45 -269 128 -392 256 -81 84 -188 230 -188 257 0 30 55 176
95 254 163 313 471 527 823 571 87 11 250 4 338 -14z m-1079 -1348 c159 -122
304 -183 532 -225 52 -9 49 -2 86 -200 42 -228 57 -370 62 -618 7 -351 -27
-631 -112 -920 -39 -134 -95 -285 -104 -285 -4 0 -132 460 -286 1023 -153 562
-297 1090 -320 1172 -23 83 -45 170 -49 195 l-7 44 70 -71 c39 -39 96 -91 128
-115z m1573 -1133 c-187 -686 -345 -1277 -350 -1314 -14 -99 7 -218 54 -310
l17 -31 -432 0 -431 0 41 73 c289 511 413 947 428 1512 10 368 -29 699 -126
1085 -11 41 -18 76 -17 77 2 2 25 -25 53 -60 38 -47 55 -78 67 -127 32 -125
113 -223 232 -281 66 -32 74 -34 179 -34 103 0 114 2 177 32 125 59 210 165
242 302 11 46 37 98 108 208 54 87 94 141 96 131 2 -9 -150 -578 -338 -1263z
m-173 1189 c116 -67 135 -233 38 -329 -132 -133 -352 -45 -356 142 -2 73 19
121 73 168 70 59 163 67 245 19z m130 -3219 c51 -82 93 -153 93 -157 0 -4
-342 -8 -760 -8 -418 0 -760 4 -760 8 0 6 101 172 176 290 l15 22 571 -2 571
-3 94 -150z"/>
</g>
</svg>
